<svg width="502" height="163" viewBox="0 0 502 163" fill="none" xmlns="http://www.w3.org/2000/svg">
<path d="M58.2143 162.584H56.551L0 2.07908H34.9286L74.8469 114.765L58.2143 162.584ZM76.5102 110.607C78.8665 98.8257 80.4605 88.6382 81.2921 80.0446C82.1237 71.4511 82.5395 63.8971 82.5395 57.3827C82.5395 52.5315 82.3316 48.2347 81.9158 44.4923C81.6386 40.6114 81.2921 37.1463 80.8763 34.0969C80.5991 30.909 80.2525 28.1369 79.8367 25.7806C79.5595 23.2857 79.4209 20.9294 79.4209 18.7117C79.4209 11.7815 81.0149 6.93027 84.2028 4.15816C87.3907 1.38605 90.9945 0 95.014 0C99.588 0 103.122 1.52466 105.617 4.57398C108.251 7.6233 109.568 11.7815 109.568 17.0485C109.568 21.6224 108.528 26.6122 106.449 32.0179L76.5102 110.607Z" fill="#2D2926"/>
<path d="M192.084 163C181.828 163 172.402 160.99 163.809 156.971C155.215 152.951 147.8 147.407 141.563 140.338C135.464 133.131 130.682 124.606 127.217 114.765C123.891 104.924 122.227 94.1824 122.227 82.5395C122.227 63.9664 126.385 48.0961 134.702 34.9286C143.157 21.7611 154.8 11.6429 169.63 4.57398C163.532 10.6726 158.819 18.781 155.493 28.8992C152.166 39.0174 150.503 50.1752 150.503 62.3725C150.503 74.0153 152.027 84.6879 155.077 94.3903C158.265 104.093 162.631 112.478 168.175 119.547C173.719 126.616 180.303 132.091 187.926 135.972C195.688 139.853 204.143 141.793 213.291 141.793C227.706 141.793 241.567 137.219 254.873 128.071C248.22 138.883 239.349 147.407 228.26 153.644C217.311 159.881 205.252 163 192.084 163ZM203.727 61.5408C212.875 61.5408 217.449 55.3729 217.449 43.037C217.449 37.2156 216.41 31.8099 214.331 26.8202C212.251 21.8304 209.341 17.5336 205.598 13.9299C201.856 10.3261 197.282 7.554 191.876 5.61352C186.471 3.53444 180.442 2.4949 173.788 2.4949C180.857 0.831634 187.303 0 193.124 0C201.717 0 209.549 1.66326 216.618 4.98979C223.686 8.17772 229.716 12.6824 234.706 18.5038C239.834 24.3253 243.784 31.2555 246.556 39.2946C249.328 47.3338 250.714 56.1352 250.714 65.699H164.225V61.5408H203.727Z" fill="#2D2926"/>
<path d="M282.057 160.089V2.07908H315.322V160.089H282.057ZM319.48 41.5816C321.975 36.3146 324.747 31.1862 327.796 26.1964C330.846 21.2066 334.172 16.7713 337.776 12.8903C341.38 9.00935 345.261 5.89073 349.419 3.53444C353.577 1.17815 358.082 0 362.933 0C368.477 0 373.051 1.52466 376.655 4.57398C380.397 7.48469 382.268 11.3656 382.268 16.2168C382.268 19.8206 381.021 23.1471 378.526 26.1964C376.17 29.2457 372.358 30.7704 367.091 30.7704C363.903 30.7704 360.785 30.2853 357.735 29.3151C354.686 28.3448 351.082 27.8597 346.924 27.8597C343.32 27.8597 339.162 28.6913 334.449 30.3546C329.876 32.0179 324.886 35.7602 319.48 41.5816Z" fill="#2D2926"/>
<path d="M447.753 0C464.94 0 478.177 5.1977 487.463 15.5931C496.75 25.8499 501.393 40.4728 501.393 59.4617V160.089H468.128V51.5612C468.128 34.5128 466.534 21.969 463.346 13.9299C460.297 5.89073 455.099 1.24745 447.753 0ZM443.595 0C438.605 0.83163 434.793 2.77211 432.16 5.82143C429.665 8.73215 427.724 12.128 426.338 16.0089C425.091 19.7513 424.19 23.7708 423.636 28.0676C423.081 32.2258 422.319 36.1067 421.349 39.7105C420.378 43.3142 418.854 46.2942 416.775 48.6505C414.834 50.8682 411.854 51.977 407.835 51.977C402.845 51.977 398.825 50.3138 395.776 46.9872C392.727 43.5221 391.202 39.0174 391.202 33.4732C391.202 28.4834 392.449 23.9787 394.944 19.9592C397.578 15.801 401.182 12.2666 405.755 9.35587C410.468 6.44515 416.012 4.15816 422.388 2.4949C428.903 0.831634 435.971 0 443.595 0ZM384.549 125.161C384.549 117.399 386.42 110.399 390.162 104.162C394.043 97.7861 399.449 92.3805 406.379 87.9452C413.31 83.3712 421.626 79.8367 431.328 77.3418C441.169 74.8469 452.05 73.5995 463.97 73.5995C457.04 74.4311 450.664 76.1637 444.842 78.7972C439.021 81.2921 434.031 84.5493 429.873 88.5689C425.715 92.4498 422.457 96.9545 420.101 102.083C417.745 107.073 416.567 112.409 416.567 118.092C416.567 127.24 419.408 134.378 425.091 139.506C430.774 144.496 438.397 146.991 447.961 146.991C452.812 146.991 458.148 146.229 463.97 144.704C458.287 150.11 451.842 154.406 444.634 157.594C437.427 160.644 430.081 162.168 422.596 162.168C417.052 162.168 411.923 161.267 407.211 159.466C402.637 157.664 398.617 155.099 395.152 151.773C391.826 148.446 389.192 144.565 387.252 140.13C385.45 135.556 384.549 130.566 384.549 125.161Z" fill="#2D2926"/>
</svg>
